<?xml version="1.0" encoding="UTF-8"?>
<svg width="128" height="192" version="1.1" viewBox="0 0 33.867 50.8" xmlns="http://www.w3.org/2000/svg">
 <path d="m7.4083 44.45-6.2662 5.7841c0.48718 0.37401 1.1665 0.56586 2.0328 0.56586h23.283c0.86195 1e-6 1.5783-0.18924 2.1328-0.55966l-5.3078-5.7903z" style="fill:#444444;paint-order:markers fill stroke"/>
 <path d="m28.531 25.929-3.4396 3.175-1.2347 14.817 5.3126 5.7955c0.42172-0.51542 0.67339-1.2113 0.72877-2.0913l1.5434-18.521z" style="fill:#cccccc;paint-order:markers fill stroke"/>
 <path d="m5.2476 25.929-3.4396 3.175-1.5434 18.521c-0.072655 0.87186 0.063517 1.5648 0.39253 2.08l6.2662-5.7841 1.2347-14.817z" style="fill:#444444;paint-order:markers fill stroke"/>
 <path d="m9.2604 22.225-3.4396 3.175 2.9104 3.175h15.875l3.4396-3.175-2.9104-3.175z" style="fill:#cccccc;paint-order:markers fill stroke"/>
 <path d="m33.221 1.0847-6.2774 5.7945-1.2347 14.817 2.9104 3.175 3.4396-3.175 1.5434-18.521c0.07342-0.88099-0.05624-1.576-0.38133-2.0903z" style="fill:#cccccc;paint-order:markers fill stroke"/>
 <path d="m4.6933 1.079c-0.40839 0.51368-0.65064 1.2096-0.7245 2.096l-1.5434 18.521 2.9104 3.175 3.4396-3.175 1.2347-14.817z" style="fill:#cccccc;paint-order:markers fill stroke"/>
 <path d="m7.4083 0c-0.88637 0-1.5977 0.18426-2.1418 0.54984l5.3168 5.8002h15.875l6.2774-5.7945c-0.48457-0.36864-1.1647-0.55552-2.044-0.55552z" style="fill:#444444;paint-order:markers fill stroke"/>
</svg>
