<?xml version="1.0" encoding="UTF-8"?>
<svg width="128" height="128" version="1.1" viewBox="0 0 33.867 33.867" xmlns="http://www.w3.org/2000/svg">
 <path d="m9.6015 4.8641c6.032-2.6259 5.8228 3.7757 7.6223 4.0898 1.7995 0.31413 2.7605-3.2617 7.0901-3.361 4.657-0.10675 8.8442 3.9526 8.4713 9.7565-0.52598 8.1858-16.398 19.211-26.561 13.758-7.2361-3.8826-4.1562-20.964 3.3774-24.243z" style="fill:#2e63a2"/>
 <path d="m12.171 24.342a3.7042 3.175 0 0 1-3.6975 3.175 3.7042 3.175 0 0 1-3.7108-3.1636 3.7042 3.175 0 0 1 3.6843-3.1863 3.7042 3.175 0 0 1 3.724 3.1522" style="fill:#009f00"/>
 <path d="m12.171 15.875a3.7042 3.175 0 0 1-3.6975 3.175 3.7042 3.175 0 0 1-3.7108-3.1636 3.7042 3.175 0 0 1 3.6843-3.1863 3.7042 3.175 0 0 1 3.724 3.1522" style="fill:#bf0000"/>
 <path d="m22.225 24.342a3.7042 3.175 0 0 1-3.6975 3.175 3.7042 3.175 0 0 1-3.7108-3.1636 3.7042 3.175 0 0 1 3.6843-3.1863 3.7042 3.175 0 0 1 3.724 3.1522" style="fill:#aa8800"/>
 <path d="m30.163 17.992a3.7042 3.175 0 0 1-3.6975 3.175 3.7042 3.175 0 0 1-3.7108-3.1636 3.7042 3.175 0 0 1 3.6843-3.1863 3.7042 3.175 0 0 1 3.724 3.1522" style="fill:#00aaaa"/>
</svg>
