<?xml version="1.0" encoding="UTF-8" standalone="no"?>
<svg
   width="72"
   height="112"
   version="1.1"
   viewBox="0 0 19.05 29.633"
   id="svg39588"
   sodipodi:docname="master.svg"
   inkscape:version="1.2.2 (732a01da63, 2022-12-09)"
   xmlns:inkscape="http://www.inkscape.org/namespaces/inkscape"
   xmlns:sodipodi="http://sodipodi.sourceforge.net/DTD/sodipodi-0.dtd"
   xmlns:xlink="http://www.w3.org/1999/xlink"
   xmlns="http://www.w3.org/2000/svg"
   xmlns:svg="http://www.w3.org/2000/svg">
  <sodipodi:namedview
     id="namedview39590"
     pagecolor="#ffffff"
     bordercolor="#000000"
     borderopacity="0.25"
     inkscape:showpageshadow="2"
     inkscape:pageopacity="0.0"
     inkscape:pagecheckerboard="0"
     inkscape:deskcolor="#d1d1d1"
     showgrid="true"
     inkscape:zoom="9.1696429"
     inkscape:cx="28.84518"
     inkscape:cy="55.945472"
     inkscape:window-width="2560"
     inkscape:window-height="1417"
     inkscape:window-x="-8"
     inkscape:window-y="-8"
     inkscape:window-maximized="1"
     inkscape:current-layer="svg39588">
    <inkscape:grid
       type="xygrid"
       id="grid39732"
       empspacing="4" />
  </sodipodi:namedview>
  <defs
     id="defs39572">
    <linearGradient
       id="brightled">
      <stop
         style="stop-color:#dddddd"
         offset="0"
         id="stop39560" />
      <stop
         style="stop-color:#888888"
         offset="1"
         id="stop39562" />
    </linearGradient>
    <radialGradient
       id="radialGradient28775"
       cx="15.421"
       cy="22.076"
       r="2.3924"
       gradientTransform="matrix(1,0,0.20552035,2.8784,-5.0766996,-41.468)"
       gradientUnits="userSpaceOnUse"
       xlink:href="#brightled" />
    <radialGradient
       id="radialGradient31218"
       cx="10.562"
       cy="2.1167"
       r="7.7951"
       gradientTransform="matrix(1,0,0.0193882,0.27154,-2.0057541,1.5419)"
       gradientUnits="userSpaceOnUse"
       xlink:href="#brightled" />
    <radialGradient
       id="radialGradient33338"
       cx="16.425"
       cy="7.5569"
       r="2.4891"
       gradientTransform="matrix(1,0,0.19753059,2.7665,-3.0690491,-13.35)"
       gradientUnits="userSpaceOnUse"
       xlink:href="#brightled" />
    <radialGradient
       id="radialGradient34112"
       cx="3.6286"
       cy="7.5568"
       r="2.3924"
       gradientTransform="matrix(1,0,0.20549893,2.8781,-3.1292401,-14.193)"
       gradientUnits="userSpaceOnUse"
       xlink:href="#brightled" />
    <radialGradient
       id="radialGradient34114"
       cx="9.5255"
       cy="14.817"
       r="5.9764"
       gradientTransform="matrix(1,0,0.02528877,0.35418,-1.4326119,9.569)"
       gradientUnits="userSpaceOnUse"
       xlink:href="#brightled" />
    <radialGradient
       id="radialGradient34116"
       cx="8.4881"
       cy="27.517"
       r="7.7956"
       gradientTransform="matrix(1,0,0.01938677,0.27152,-0.6846161,20.045)"
       gradientUnits="userSpaceOnUse"
       xlink:href="#brightled" />
    <radialGradient
       id="radialGradient34896"
       cx="2.6247"
       cy="22.076"
       r="2.4891"
       gradientTransform="matrix(1,0,0.19752345,2.7664,-4.9001252,-38.995)"
       gradientUnits="userSpaceOnUse"
       xlink:href="#brightled" />
    <radialGradient
       inkscape:collect="always"
       xlink:href="#brightled"
       id="radialGradient40159"
       cx="8.4666662"
       cy="11.6415"
       fx="8.4666662"
       fy="11.6415"
       r="2.1166666"
       gradientUnits="userSpaceOnUse" />
    <radialGradient
       inkscape:collect="always"
       xlink:href="#brightled"
       id="radialGradient40161"
       cx="8.4666662"
       cy="17.991501"
       fx="8.4666662"
       fy="17.991501"
       r="2.1166666"
       gradientUnits="userSpaceOnUse" />
  </defs>
  <path
     d="M 4.6076357,25.4 0.67128394,29.3362 C 1.0022967,29.5459 1.47237,29.63334 2.1167,29.63334 h 12.7 c 0.64454,0 1.11487,-0.08726 1.445884,-0.29714 L 12.326536,25.4 Z"
     style="fill:url(#radialGradient34116)"
     id="path39574" />
  <path
     d="M 2.1170325,15.19 2.6681571e-4,17.3067 0,27.5167 c -1.8246778e-5,0.64391 0.08715746,1.1139 0.29658716,1.4449 L 4.2334389,25.0254 4.2336482,17.307 Z"
     style="fill:url(#radialGradient34896)"
     id="path39576" />
  <path
     d="m 14.816733,15.19 -2.11673,2.1172 -2.14e-4,7.7189 3.936048,3.9362 c 0.209715,-0.33102 0.297162,-0.80109 0.297177,-1.4454 l 2.66e-4,-10.211 z"
     style="fill:url(#radialGradient28775)"
     id="path39578" />
  <path
     d="m 4.6079443,12.7 -2.1167657,2.1167 2.1166343,2.1167 H 12.326713 L 14.443979,14.8167 12.327344,12.7 Z"
     style="fill:url(#radialGradient34114)"
     id="path39580" />
  <path
     d="M 0.29798286,0.67128 C 0.08826799,1.0023 8.2141011e-4,1.47237 8.0572369e-4,2.11668 l -2.982166e-4,10.209 2.11663429291,2.1167 2.1167657,-2.1167 2.093e-4,-7.7184 z"
     style="fill:url(#radialGradient34112)"
     id="path39582" />
  <path
     d="m 16.637046,0.67076 -3.936352,3.9362 -2.14e-4,7.7189 2.11717,2.1172 2.116202,-2.1162 2.97e-4,-10.21 c 1.9e-5,-0.64454 -0.08721,-1.1149 -0.297099,-1.4459 z"
     style="fill:url(#radialGradient33338)"
     id="path39584" />
  <path
     d="M 2.1174529,0 C 1.4735429,0 1.0035781,0.087187 0.6725318,0.29662 l 3.9360839,3.9367 h 7.7174003 l 3.936852,-3.9362 C 15.931854,0.08741 15.461781,-2e-5 14.817451,-2e-5 Z"
     style="fill:url(#radialGradient31218)"
     id="path39586" />
  <rect
     style="fill:url(#radialGradient40159);stroke-width:0.529167;stroke-linecap:round;stroke-linejoin:round;fill-opacity:1.0"
     id="rect39786"
     width="4.2333331"
     height="4.2333331"
     x="6.3499999"
     y="9.5248337"
     ry="1.154848e-08" />
  <rect
     style="fill:url(#radialGradient40161);stroke-width:0.529167;stroke-linecap:round;stroke-linejoin:round;fill-opacity:1.0"
     id="rect39788"
     width="4.2333331"
     height="4.2333331"
     x="6.3499999"
     y="15.874833"
     ry="1.154848e-08" />
</svg>
