<?xml version="1.0" encoding="UTF-8"?>
<svg width="128" height="128" version="1.1" viewBox="0 0 33.867 33.867" xmlns="http://www.w3.org/2000/svg">
 <path d="m10.054 5.0183a13.758 13.758 0 0 0-5.0359 18.794 13.758 13.758 0 0 0 0.569 0.89356l-2.7895 1.6105 7.2286 1.9369 1.9369-7.2286-2.6942 1.5555a9.5251 9.5251 0 0 1-0.58467-0.88451 9.5251 9.5251 0 0 1 3.4864-13.012 9.5251 9.5251 0 0 1 13.012 3.4864 9.5251 9.5251 0 0 1-3.4864 13.012l2.1167 3.6662a13.758 13.758 0 0 0 5.0359-18.794 13.758 13.758 0 0 0-18.794-5.0359z" style="fill:#2e63a2;stroke-linecap:round;stroke-linejoin:round;stroke-width:.52917"/>
</svg>
