<?xml version="1.0" encoding="UTF-8"?>
<svg width="128" height="128" version="1.1" viewBox="0 0 33.867 33.867" xmlns="http://www.w3.org/2000/svg">
 <path d="m20.785 25.819-8.0929-8.7713s-1.7304 0.25766-2.3261-0.19384c-2.5228-1.9123-3.6701-2.9302-5.5896-5.4227-0.36266-0.47094 0.48359-1.2126 0.93738-0.8287 1.1924 1.0087 2.5058 1.9869 2.5058 1.9869s-3.0963-2.8065-4.0081-3.9253c-0.3248-0.39854 0.69289-1.4682 1.0661-1.1146 1.4197 1.345 4.0222 3.7315 4.0222 3.7315s-2.7399-2.5167-4.1676-4.943c-0.22599-0.38406 0.66987-1.2509 0.96921-0.92075 1.3319 1.4688 4.4099 4.8945 4.4099 4.8945s-1.8415-1.95-3.6345-4.7612c-0.21768-0.3413 0.81712-0.90068 1.0661-0.58153 1.7317 2.2196 3.9253 4.7128 3.9253 4.7128s-1.9571-2.2879-1.4632-3.1932c0.40414-0.74078 1.5592 0.53704 2.2871 0.964 2.8986 1.7003 2.6653 3.1015 2.6653 3.1015l0.87229 3.8768 10.08 11.388z" style="fill:#2e63a2;stroke-linecap:round;stroke-linejoin:round;stroke-width:.77764"/>
 <path d="m13.399 25.819 8.0929-8.7713s1.7304 0.25766 2.3261-0.19384c2.5228-1.9123 3.6701-2.9302 5.5896-5.4227 0.36267-0.47094-0.48359-1.2126-0.93738-0.8287-1.1924 1.0087-2.5058 1.9869-2.5058 1.9869s3.0963-2.8065 4.0081-3.9253c0.3248-0.39854-0.69289-1.4682-1.0661-1.1146-1.4197 1.345-4.0222 3.7315-4.0222 3.7315s2.7399-2.5167 4.1676-4.943c0.22599-0.38406-0.66987-1.2509-0.96921-0.92075-1.3319 1.4688-4.4099 4.8945-4.4099 4.8945s1.8415-1.95 3.6345-4.7612c0.21768-0.3413-0.81712-0.90068-1.0661-0.58153-1.7317 2.2196-3.9253 4.7128-3.9253 4.7128s1.9571-2.2879 1.4632-3.1932c-0.40414-0.74078-1.5592 0.53704-2.2871 0.964-2.8986 1.7003-2.6653 3.1015-2.6653 3.1015l-0.87229 3.8768-10.08 11.388z" style="fill:#2e63a2;stroke-linecap:round;stroke-linejoin:round;stroke-width:.77764"/>
</svg>
